<?xml version="1.0" encoding="utf-8" standalone="no"?>
<!-- Generated by Therion 5.3.16 -->
<!-- Author: Paweł Krawczyk -->
<!-- Title: Слизняки -->
<!DOCTYPE svg PUBLIC "-//W3C//DTD SVG 1.1//EN" "http://www.w3.org/Graphics/SVG/1.1/DTD/svg11.dtd">
<svg width="14.065cm" height="20.556cm" viewBox="-47.481 -42.265 398.693 582.693" xmlns="http://www.w3.org/2000/svg" xmlns:xlink="http://www.w3.org/1999/xlink">
<defs>
<g id="F_aaaaaaa_sliznyak-sect.svg">
<g>
<clipPath id="clip_1_sliznyak-sect.svg">
  <path d="M-58.140 417.450C-58.337 416.313 -58.533 415.177 -58.730 414.040C-58.643 412.767 -58.557 411.493 -58.470 410.220C-58.393 409.327 -58.317 408.433 -58.240 407.540C-58.247 406.343 -58.253 405.147 -58.260 403.950C-58.350 403.040 -58.440 402.130 -58.530 401.220C-58.493 400.200 -58.457 399.180 -58.420 398.160C-58.320 396.997 -58.220 395.833 -58.120 394.670C-58.007 393.700 -57.893 392.730 -57.780 391.760C-57.687 390.870 -57.593 389.980 -57.500 389.090C-57.290 388.047 -57.080 387.003 -56.870 385.960C-56.667 384.920 -56.463 383.880 -56.260 382.840C-56.053 381.797 -55.847 380.753 -55.640 379.710C-55.730 378.793 -55.820 377.877 -55.910 376.960C-56.183 375.840 -56.457 374.720 -56.730 373.600C-56.817 372.577 -56.903 371.553 -56.990 370.530C-57.143 369.480 -57.297 368.430 -57.450 367.380C-57.570 366.150 -57.690 364.920 -57.810 363.690C-57.937 362.497 -58.063 361.303 -58.190 360.110C-58.350 358.787 -58.510 357.463 -58.670 356.140C-58.580 355.227 -58.490 354.313 -58.400 353.400C-58.257 352.227 -58.113 351.053 -57.970 349.880C-57.840 348.913 -57.710 347.947 -57.580 346.980C-57.477 346.010 -57.373 345.040 -57.270 344.070C-57.153 343.013 -57.037 341.957 -56.920 340.900C-56.887 339.820 -56.853 338.740 -56.820 337.660C-56.703 336.603 -56.587 335.547 -56.470 334.490C-56.403 333.243 -56.337 331.997 -56.270 330.750C-56.333 329.537 -56.397 328.323 -56.460 327.110C-56.417 325.977 -56.373 324.843 -56.330 323.710C-56.273 322.517 -56.217 321.323 -56.160 320.130C-56.057 318.680 -55.953 317.230 -55.850 315.780C-55.833 314.793 -55.817 313.807 -55.800 312.820C-55.567 311.780 -55.333 310.740 -55.100 309.700C-54.870 308.543 -54.640 307.387 -54.410 306.230C-54.213 305.223 -54.017 304.217 -53.820 303.210C-53.637 302.283 -53.453 301.357 -53.270 300.430C-53.037 299.240 -52.803 298.050 -52.570 296.860C-52.267 295.333 -51.963 293.807 -51.660 292.280C-51.440 291.150 -51.220 290.020 -51.000 288.890C-50.810 287.937 -50.620 286.983 -50.430 286.030C-50.243 285.073 -50.057 284.117 -49.870 283.160C-49.667 282.120 -49.463 281.080 -49.260 280.040C-49.007 278.767 -48.753 277.493 -48.500 276.220C-48.273 275.067 -48.047 273.913 -47.820 272.760C-47.550 271.850 -47.280 270.940 -47.010 270.030C-46.610 269.060 -46.210 268.090 -45.810 267.120C-45.490 266.250 -45.170 265.380 -44.850 264.510C-45.153 263.460 -45.457 262.410 -45.760 261.360C-45.763 260.307 -45.767 259.253 -45.770 258.200C-45.807 256.870 -45.843 255.540 -45.880 254.210C-45.900 253.247 -45.920 252.283 -45.940 251.320C-45.817 250.080 -45.693 248.840 -45.570 247.600C-45.353 246.503 -45.137 245.407 -44.920 244.310C-44.727 243.327 -44.533 242.343 -44.340 241.360C-44.157 240.437 -43.973 239.513 -43.790 238.590C-43.563 237.430 -43.337 236.270 -43.110 235.110C-42.823 234.267 -42.537 233.423 -42.250 232.580C-41.977 231.640 -41.703 230.700 -41.430 229.760C-41.040 228.697 -40.650 227.633 -40.260 226.570C-39.933 225.673 -39.607 224.777 -39.280 223.880C-38.883 222.937 -38.487 221.993 -38.090 221.050C-37.850 220.137 -37.610 219.223 -37.370 218.310C-37.080 217.287 -36.790 216.263 -36.500 215.240C-36.500 215.240 -36.500 215.240 -36.500 215.240C-36.703 214.343 -36.907 213.447 -37.110 212.550C-37.120 211.983 -37.130 211.417 -37.140 210.850C-37.037 210.307 -36.933 209.763 -36.830 209.220C-37.080 208.633 -37.330 208.047 -37.580 207.460C-37.947 206.993 -38.313 206.527 -38.680 206.060C-39.213 205.873 -39.747 205.687 -40.280 205.500C-40.833 205.387 -41.387 205.273 -41.940 205.160C-42.510 205.050 -43.080 204.940 -43.650 204.830C-44.283 204.770 -44.917 204.710 -45.550 204.650C-46.213 204.513 -46.877 204.377 -47.540 204.240C-48.210 204.203 -48.880 204.167 -49.550 204.130C-50.200 204.080 -50.850 204.030 -51.500 203.980C-52.220 203.877 -52.940 203.773 -53.660 203.670C-54.330 203.633 -55.000 203.597 -55.670 203.560C-56.283 203.530 -56.897 203.500 -57.510 203.470C-58.257 203.437 -59.003 203.403 -59.750 203.370C-60.543 203.467 -61.337 203.563 -62.130 203.660C-62.703 203.620 -63.277 203.580 -63.850 203.540C-64.633 203.513 -65.417 203.487 -66.200 203.460C-66.963 203.437 -67.727 203.413 -68.490 203.390C-69.157 203.243 -69.823 203.097 -70.490 202.950C-70.990 202.600 -71.490 202.250 -71.990 201.900C-72.420 201.517 -72.850 201.133 -73.280 200.750C-73.443 200.220 -73.607 199.690 -73.770 199.160C-73.747 198.563 -73.723 197.967 -73.700 197.370C-73.550 196.730 -73.400 196.090 -73.250 195.450C-72.957 194.900 -72.663 194.350 -72.370 193.800C-71.897 193.290 -71.423 192.780 -70.950 192.270C-70.350 191.820 -69.750 191.370 -69.150 190.920C-68.703 190.620 -68.257 190.320 -67.810 190.020C-67.330 189.683 -66.850 189.347 -66.370 189.010C-65.803 188.603 -65.237 188.197 -64.670 187.790C-63.973 187.470 -63.277 187.150 -62.580 186.830C-61.920 186.653 -61.260 186.477 -60.600 186.300C-59.923 185.987 -59.247 185.673 -58.570 185.360C-58.097 185.037 -57.623 184.713 -57.150 184.390C-56.527 184.063 -55.903 183.737 -55.280 183.410C-54.650 183.193 -54.020 182.977 -53.390 182.760C-52.687 182.350 -51.983 181.940 -51.280 181.530C-50.630 181.233 -49.980 180.937 -49.330 180.640C-48.713 180.417 -48.097 180.193 -47.480 179.970C-46.810 179.747 -46.140 179.523 -45.470 179.300C-44.833 179.077 -44.197 178.853 -43.560 178.630C-42.963 178.407 -42.367 178.183 -41.770 177.960C-41.230 177.660 -40.690 177.360 -40.150 177.060C-40.150 177.060 -40.150 177.060 -40.150 177.060C-38.903 175.557 -37.657 174.053 -36.410 172.550C-34.993 170.927 -33.577 169.303 -32.160 167.680C-30.747 166.120 -29.333 164.560 -27.920 163.000C-26.683 161.463 -25.447 159.927 -24.210 158.390C-22.883 156.633 -21.557 154.877 -20.230 153.120C-19.040 151.560 -17.850 150.000 -16.660 148.440C-15.217 146.650 -13.773 144.860 -12.330 143.070C-11.087 141.473 -9.843 139.877 -8.600 138.280C-7.577 136.603 -6.553 134.927 -5.530 133.250C-4.193 131.763 -2.857 130.277 -1.520 128.790C-0.523 128.367 0.473 127.943 1.470 127.520C1.470 127.520 1.470 127.520 1.470 127.520C2.457 127.333 3.443 127.147 4.430 126.960C5.443 126.603 6.457 126.247 7.470 125.890C8.737 125.577 10.003 125.263 11.270 124.950C12.467 124.523 13.663 124.097 14.860 123.670C15.930 123.300 17.000 122.930 18.070 122.560C19.067 122.190 20.063 121.820 21.060 121.450C22.080 121.310 23.100 121.170 24.120 121.030C25.073 121.090 26.027 121.150 26.980 121.210C28.017 121.240 29.053 121.270 30.090 121.300C31.070 121.243 32.050 121.187 33.030 121.130C34.093 121.160 35.157 121.190 36.220 121.220C37.107 121.160 37.993 121.100 38.880 121.040C39.853 120.873 40.827 120.707 41.800 120.540C42.687 120.540 43.573 120.540 44.460 120.540C45.317 119.803 46.173 119.067 47.030 118.330C47.643 117.450 48.257 116.570 48.870 115.690C49.027 114.767 49.183 113.843 49.340 112.920C49.343 112.013 49.347 111.107 49.350 110.200C49.357 109.313 49.363 108.427 49.370 107.540C49.380 106.507 49.390 105.473 49.400 104.440C49.400 104.440 49.400 104.440 49.400 104.440C48.953 103.663 48.507 102.887 48.060 102.110C47.873 101.177 47.687 100.243 47.500 99.310C47.467 98.270 47.433 97.230 47.400 96.190C47.640 95.300 47.880 94.410 48.120 93.520C49.293 92.573 50.467 91.627 51.640 90.680C52.900 89.970 54.160 89.260 55.420 88.550C56.650 87.843 57.880 87.137 59.110 86.430C60.223 85.953 61.337 85.477 62.450 85.000C63.627 84.677 64.803 84.353 65.980 84.030C66.920 84.060 67.860 84.090 68.800 84.120C69.980 83.943 71.160 83.767 72.340 83.590C73.640 83.593 74.940 83.597 76.240 83.600C77.537 83.600 78.833 83.600 80.130 83.600C81.047 83.513 81.963 83.427 82.880 83.340C83.883 83.017 84.887 82.693 85.890 82.370C87.283 82.013 88.677 81.657 90.070 81.300C91.103 81.277 92.137 81.253 93.170 81.230C94.660 80.927 96.150 80.623 97.640 80.320C97.640 80.320 97.640 80.320 97.640 80.320C99.330 78.977 101.020 77.633 102.710 76.290C104.337 74.820 105.963 73.350 107.590 71.880C108.977 70.637 110.363 69.393 111.750 68.150C112.767 66.533 113.783 64.917 114.800 63.300C115.167 61.240 115.533 59.180 115.900 57.120C116.553 56.237 117.207 55.353 117.860 54.470C117.860 54.470 117.860 54.470 117.860 54.470C118.600 53.780 119.340 53.090 120.080 52.400C121.140 51.807 122.200 51.213 123.260 50.620C124.313 50.143 125.367 49.667 126.420 49.190C127.507 48.677 128.593 48.163 129.680 47.650C130.760 47.347 131.840 47.043 132.920 46.740C133.960 46.397 135.000 46.053 136.040 45.710C137.207 45.453 138.373 45.197 139.540 44.940C140.500 44.650 141.460 44.360 142.420 44.070C143.650 41.723 144.880 39.377 146.110 37.030C146.110 37.030 146.110 37.030 146.110 37.030C147.200 35.970 148.290 34.910 149.380 33.850C150.467 33.027 151.553 32.203 152.640 31.380C153.523 30.673 154.407 29.967 155.290 29.260C156.080 28.670 156.870 28.080 157.660 27.490C158.667 26.787 159.673 26.083 160.680 25.380C161.683 24.890 162.687 24.400 163.690 23.910C164.780 23.397 165.870 22.883 166.960 22.370C167.803 22.033 168.647 21.697 169.490 21.360C170.503 21.143 171.517 20.927 172.530 20.710C173.623 20.377 174.717 20.043 175.810 19.710C176.873 19.437 177.937 19.163 179.000 18.890C179.970 18.743 180.940 18.597 181.910 18.450C182.813 18.453 183.717 18.457 184.620 18.460C185.550 18.197 186.480 17.933 187.410 17.670C188.660 17.230 189.910 16.790 191.160 16.350C192.240 16.020 193.320 15.690 194.400 15.360C194.400 15.360 194.400 15.360 194.400 15.360C195.123 14.637 195.847 13.913 196.570 13.190C197.457 12.613 198.343 12.037 199.230 11.460C200.137 10.827 201.043 10.193 201.950 9.560C203.303 8.550 204.657 7.540 206.010 6.530C207.537 5.810 209.063 5.090 210.590 4.370C211.853 3.677 213.117 2.983 214.380 2.290C215.640 1.747 216.900 1.203 218.160 0.660C219.157 0.317 220.153 -0.027 221.150 -0.370C222.203 -0.480 223.257 -0.590 224.310 -0.700C225.593 -0.690 226.877 -0.680 228.160 -0.670C229.217 -0.897 230.273 -1.123 231.330 -1.350C232.293 -1.283 233.257 -1.217 234.220 -1.150C235.540 -0.903 236.860 -0.657 238.180 -0.410C238.180 -0.410 238.180 -0.410 238.180 -0.410C239.850 -0.980 241.520 -1.550 243.190 -2.120C244.387 -2.023 245.583 -1.927 246.780 -1.830C247.713 -1.763 248.647 -1.697 249.580 -1.630C250.487 -1.240 251.393 -0.850 252.300 -0.460C253.173 -0.043 254.047 0.373 254.920 0.790C255.617 1.383 256.313 1.977 257.010 2.570C257.677 3.307 258.343 4.043 259.010 4.780C259.500 5.547 259.990 6.313 260.480 7.080C261.060 7.963 261.640 8.847 262.220 9.730C262.737 10.907 263.253 12.083 263.770 13.260C264.317 14.320 264.863 15.380 265.410 16.440C265.517 17.400 265.623 18.360 265.730 19.320C265.723 20.210 265.717 21.100 265.710 21.990C265.730 23.013 265.750 24.037 265.770 25.060C265.483 25.967 265.197 26.873 264.910 27.780C264.333 28.537 263.757 29.293 263.180 30.050C262.467 30.600 261.753 31.150 261.040 31.700C260.160 31.987 259.280 32.273 258.400 32.560C257.347 32.547 256.293 32.533 255.240 32.520C254.303 32.513 253.367 32.507 252.430 32.500C251.437 32.460 250.443 32.420 249.450 32.380C248.157 32.543 246.863 32.707 245.570 32.870C244.690 33.010 243.810 33.150 242.930 33.290C242.080 33.663 241.230 34.037 240.380 34.410C239.320 34.720 238.260 35.030 237.200 35.340C236.377 35.657 235.553 35.973 234.730 36.290C233.700 36.810 232.670 37.330 231.640 37.850C230.463 38.337 229.287 38.823 228.110 39.310C227.020 40.007 225.930 40.703 224.840 41.400C223.447 42.153 222.053 42.907 220.660 43.660C219.540 43.913 218.420 44.167 217.300 44.420C216.300 44.730 215.300 45.040 214.300 45.350C213.097 45.307 211.893 45.263 210.690 45.220C209.807 45.327 208.923 45.433 208.040 45.540C207.130 45.497 206.220 45.453 205.310 45.410C203.853 45.620 202.397 45.830 200.940 46.040C200.063 46.237 199.187 46.433 198.310 46.630C198.310 46.630 198.310 46.630 198.310 46.630C197.417 46.827 196.523 47.023 195.630 47.220C194.613 47.030 193.597 46.840 192.580 46.650C191.650 46.373 190.720 46.097 189.790 45.820C188.803 45.690 187.817 45.560 186.830 45.430C185.603 45.417 184.377 45.403 183.150 45.390C181.977 45.380 180.803 45.370 179.630 45.360C178.630 45.327 177.630 45.293 176.630 45.260C175.827 45.673 175.023 46.087 174.220 46.500C173.347 47.183 172.473 47.867 171.600 48.550C170.547 49.177 169.493 49.803 168.440 50.430C167.597 50.963 166.753 51.497 165.910 52.030C164.823 52.683 163.737 53.337 162.650 53.990C161.713 54.523 160.777 55.057 159.840 55.590C158.837 56.303 157.833 57.017 156.830 57.730C155.953 58.397 155.077 59.063 154.200 59.730C153.283 60.247 152.367 60.763 151.450 61.280C150.700 61.823 149.950 62.367 149.200 62.910C148.290 63.457 147.380 64.003 146.470 64.550C145.510 64.537 144.550 64.523 143.590 64.510C142.540 64.460 141.490 64.410 140.440 64.360C139.410 64.550 138.380 64.740 137.350 64.930C136.387 64.963 135.423 64.997 134.460 65.030C133.287 65.170 132.113 65.310 130.940 65.450C129.910 65.837 128.880 66.223 127.850 66.610C126.937 67.293 126.023 67.977 125.110 68.660C124.630 69.627 124.150 70.593 123.670 71.560C123.160 72.527 122.650 73.493 122.140 74.460C121.667 75.247 121.193 76.033 120.720 76.820C120.420 77.780 120.120 78.740 119.820 79.700C119.593 80.727 119.367 81.753 119.140 82.780C118.947 83.667 118.753 84.553 118.560 85.440C118.397 86.443 118.233 87.447 118.070 88.450C117.760 89.487 117.450 90.523 117.140 91.560C116.867 92.490 116.593 93.420 116.320 94.350C115.973 95.243 115.627 96.137 115.280 97.030C114.743 97.910 114.207 98.790 113.670 99.670C113.057 100.537 112.443 101.403 111.830 102.270C111.563 103.227 111.297 104.183 111.030 105.140C110.610 105.993 110.190 106.847 109.770 107.700C109.230 108.643 108.690 109.587 108.150 110.530C106.857 111.480 105.563 112.430 104.270 113.380C104.270 113.380 104.270 113.380 104.270 113.380C102.337 114.777 100.403 116.173 98.470 117.570C97.203 119.070 95.937 120.570 94.670 122.070C93.490 123.753 92.310 125.437 91.130 127.120C90.007 128.527 88.883 129.933 87.760 131.340C86.870 133.107 85.980 134.873 85.090 136.640C84.523 138.637 83.957 140.633 83.390 142.630C82.587 144.660 81.783 146.690 80.980 148.720C80.090 150.607 79.200 152.493 78.310 154.380C77.337 156.063 76.363 157.747 75.390 159.430C74.327 161.170 73.263 162.910 72.200 164.650C71.167 166.363 70.133 168.077 69.100 169.790C67.863 171.533 66.627 173.277 65.390 175.020C64.417 176.763 63.443 178.507 62.470 180.250C61.587 182.290 60.703 184.330 59.820 186.370C58.903 188.420 57.987 190.470 57.070 192.520C56.267 194.673 55.463 196.827 54.660 198.980C53.963 201.393 53.267 203.807 52.570 206.220C52.097 208.320 51.623 210.420 51.150 212.520C50.630 214.397 50.110 216.273 49.590 218.150C48.800 220.423 48.010 222.697 47.220 224.970C46.367 227.063 45.513 229.157 44.660 231.250C44.320 233.747 43.980 236.243 43.640 238.740C42.613 240.810 41.587 242.880 40.560 244.950C39.740 247.007 38.920 249.063 38.100 251.120C36.780 253.647 35.460 256.173 34.140 258.700C32.407 261.483 30.673 264.267 28.940 267.050C28.940 267.050 28.940 267.050 28.940 267.050C28.010 267.887 27.080 268.723 26.150 269.560C25.160 270.197 24.170 270.833 23.180 271.470C21.797 272.083 20.413 272.697 19.030 273.310C19.030 273.310 19.030 273.310 19.030 273.310C18.050 273.327 17.070 273.343 16.090 273.360C15.270 273.307 14.450 273.253 13.630 273.200C13.023 273.117 12.417 273.033 11.810 272.950C11.257 272.743 10.703 272.537 10.150 272.330C9.707 271.853 9.263 271.377 8.820 270.900C8.387 270.523 7.953 270.147 7.520 269.770C7.073 269.293 6.627 268.817 6.180 268.340C5.877 267.863 5.573 267.387 5.270 266.910C5.260 266.247 5.250 265.583 5.240 264.920C5.350 264.213 5.460 263.507 5.570 262.800C5.553 262.157 5.537 261.513 5.520 260.870C5.350 260.243 5.180 259.617 5.010 258.990C4.987 258.103 4.963 257.217 4.940 256.330C4.843 255.640 4.747 254.950 4.650 254.260C4.523 253.693 4.397 253.127 4.270 252.560C4.113 251.830 3.957 251.100 3.800 250.370C3.613 249.680 3.427 248.990 3.240 248.300C2.893 247.573 2.547 246.847 2.200 246.120C1.860 245.353 1.520 244.587 1.180 243.820C0.757 243.053 0.333 242.287 -0.090 241.520C-0.383 240.707 -0.677 239.893 -0.970 239.080C-1.253 238.430 -1.537 237.780 -1.820 237.130C-2.387 236.773 -2.953 236.417 -3.520 236.060C-4.353 235.850 -5.187 235.640 -6.020 235.430C-6.757 235.433 -7.493 235.437 -8.230 235.440C-8.973 235.490 -9.717 235.540 -10.460 235.590C-11.197 235.587 -11.933 235.583 -12.670 235.580C-13.383 235.847 -14.097 236.113 -14.810 236.380C-15.397 236.797 -15.983 237.213 -16.570 237.630C-17.167 238.270 -17.763 238.910 -18.360 239.550C-18.770 240.267 -19.180 240.983 -19.590 241.700C-19.910 242.303 -20.230 242.907 -20.550 243.510C-20.757 244.157 -20.963 244.803 -21.170 245.450C-21.357 246.023 -21.543 246.597 -21.730 247.170C-22.060 247.867 -22.390 248.563 -22.720 249.260C-23.037 249.900 -23.353 250.540 -23.670 251.180C-24.060 251.803 -24.450 252.427 -24.840 253.050C-24.980 253.730 -25.120 254.410 -25.260 255.090C-25.387 255.697 -25.513 256.303 -25.640 256.910C-25.817 257.773 -25.993 258.637 -26.170 259.500C-26.307 260.160 -26.443 260.820 -26.580 261.480C-26.713 262.140 -26.847 262.800 -26.980 263.460C-27.107 264.083 -27.233 264.707 -27.360 265.330C-27.480 265.937 -27.600 266.543 -27.720 267.150C-27.900 267.763 -28.080 268.377 -28.260 268.990C-28.387 269.613 -28.513 270.237 -28.640 270.860C-28.787 271.593 -28.933 272.327 -29.080 273.060C-29.197 273.647 -29.313 274.233 -29.430 274.820C-29.567 275.497 -29.703 276.173 -29.840 276.850C-29.940 277.460 -30.040 278.070 -30.140 278.680C-30.417 279.197 -30.693 279.713 -30.970 280.230C-31.250 280.783 -31.530 281.337 -31.810 281.890C-32.047 282.413 -32.283 282.937 -32.520 283.460C-32.660 284.157 -32.800 284.853 -32.940 285.550C-33.047 286.100 -33.153 286.650 -33.260 287.200C-33.413 287.967 -33.567 288.733 -33.720 289.500C-33.927 290.260 -34.133 291.020 -34.340 291.780C-34.453 292.347 -34.567 292.913 -34.680 293.480C-34.823 294.117 -34.967 294.753 -35.110 295.390C-35.127 296.147 -35.143 296.903 -35.160 297.660C-35.197 298.337 -35.233 299.013 -35.270 299.690C-35.303 300.427 -35.337 301.163 -35.370 301.900C-35.277 302.583 -35.183 303.267 -35.090 303.950C-35.030 304.703 -34.970 305.457 -34.910 306.210C-34.833 306.987 -34.757 307.763 -34.680 308.540C-34.630 309.253 -34.580 309.967 -34.530 310.680C-34.540 311.303 -34.550 311.927 -34.560 312.550C-34.553 313.390 -34.547 314.230 -34.540 315.070C-34.503 315.743 -34.467 316.417 -34.430 317.090C-34.410 317.663 -34.390 318.237 -34.370 318.810C-34.530 319.613 -34.690 320.417 -34.850 321.220C-34.910 321.820 -34.970 322.420 -35.030 323.020C-34.917 323.590 -34.803 324.160 -34.690 324.730C-34.690 324.730 -34.690 324.730 -34.690 324.730C-34.507 325.850 -34.323 326.970 -34.140 328.090C-34.047 328.827 -33.953 329.563 -33.860 330.300C-33.740 331.190 -33.620 332.080 -33.500 332.970C-33.607 333.943 -33.713 334.917 -33.820 335.890C-33.833 336.847 -33.847 337.803 -33.860 338.760C-33.840 339.843 -33.820 340.927 -33.800 342.010C-33.653 343.027 -33.507 344.043 -33.360 345.060C-33.137 346.090 -32.913 347.120 -32.690 348.150C-32.517 349.230 -32.343 350.310 -32.170 351.390C-31.927 352.323 -31.683 353.257 -31.440 354.190C-31.330 355.150 -31.220 356.110 -31.110 357.070C-31.027 358.047 -30.943 359.023 -30.860 360.000C-30.847 360.860 -30.833 361.720 -30.820 362.580C-30.900 363.497 -30.980 364.413 -31.060 365.330C-31.343 366.330 -31.627 367.330 -31.910 368.330C-32.143 369.173 -32.377 370.017 -32.610 370.860C-33.007 371.850 -33.403 372.840 -33.800 373.830C-34.103 374.853 -34.407 375.877 -34.710 376.900C-35.503 378.150 -36.297 379.400 -37.090 380.650C-37.090 380.650 -37.090 380.650 -37.090 380.650C-37.363 381.097 -37.637 381.543 -37.910 381.990C-38.257 382.467 -38.603 382.943 -38.950 383.420C-39.110 383.893 -39.270 384.367 -39.430 384.840C-39.527 385.300 -39.623 385.760 -39.720 386.220C-39.790 386.677 -39.860 387.133 -39.930 387.590C-39.930 388.053 -39.930 388.517 -39.930 388.980C-39.933 389.543 -39.937 390.107 -39.940 390.670C-39.750 391.300 -39.560 391.930 -39.370 392.560C-39.077 393.190 -38.783 393.820 -38.490 394.450C-38.073 394.987 -37.657 395.523 -37.240 396.060C-36.767 396.527 -36.293 396.993 -35.820 397.460C-35.433 397.880 -35.047 398.300 -34.660 398.720C-34.223 399.180 -33.787 399.640 -33.350 400.100C-33.193 400.630 -33.037 401.160 -32.880 401.690C-32.890 402.370 -32.900 403.050 -32.910 403.730C-33.010 404.480 -33.110 405.230 -33.210 405.980C-33.330 406.563 -33.450 407.147 -33.570 407.730C-33.790 408.330 -34.010 408.930 -34.230 409.530C-34.350 410.220 -34.470 410.910 -34.590 411.600C-34.797 412.233 -35.003 412.867 -35.210 413.500C-35.537 414.043 -35.863 414.587 -36.190 415.130C-36.630 415.533 -37.070 415.937 -37.510 416.340C-37.883 416.773 -38.257 417.207 -38.630 417.640C-39.070 418.147 -39.510 418.653 -39.950 419.160C-40.093 419.723 -40.237 420.287 -40.380 420.850C-40.337 421.470 -40.293 422.090 -40.250 422.710C-40.153 423.260 -40.057 423.810 -39.960 424.360C-39.917 424.910 -39.873 425.460 -39.830 426.010C-39.660 426.527 -39.490 427.043 -39.320 427.560C-38.903 428.080 -38.487 428.600 -38.070 429.120C-37.507 429.327 -36.943 429.533 -36.380 429.740C-36.380 429.740 -36.380 429.740 -36.380 429.740C-35.757 430.250 -35.133 430.760 -34.510 431.270C-34.143 431.820 -33.777 432.370 -33.410 432.920C-33.420 433.593 -33.430 434.267 -33.440 434.940C-33.457 435.823 -33.473 436.707 -33.490 437.590C-33.507 438.527 -33.523 439.463 -33.540 440.400C-33.550 441.110 -33.560 441.820 -33.570 442.530C-33.570 442.530 -33.570 442.530 -33.570 442.530C-34.000 443.970 -34.430 445.410 -34.860 446.850C-34.930 447.927 -35.000 449.003 -35.070 450.080C-35.200 451.407 -35.330 452.733 -35.460 454.060C-35.517 455.333 -35.573 456.607 -35.630 457.880C-35.867 459.273 -36.103 460.667 -36.340 462.060C-36.487 463.437 -36.633 464.813 -36.780 466.190C-36.797 467.323 -36.813 468.457 -36.830 469.590C-36.853 470.847 -36.877 472.103 -36.900 473.360C-36.920 474.687 -36.940 476.013 -36.960 477.340C-36.987 478.773 -37.013 480.207 -37.040 481.640C-37.060 482.967 -37.080 484.293 -37.100 485.620C-37.210 486.873 -37.320 488.127 -37.430 489.380C-37.730 490.437 -38.030 491.493 -38.330 492.550C-38.657 493.620 -38.983 494.690 -39.310 495.760C-39.957 496.693 -40.603 497.627 -41.250 498.560C-41.727 499.593 -42.203 500.627 -42.680 501.660C-43.513 502.727 -44.347 503.793 -45.180 504.860C-45.480 505.970 -45.780 507.080 -46.080 508.190C-46.310 509.250 -46.540 510.310 -46.770 511.370C-46.950 512.570 -47.130 513.770 -47.310 514.970C-47.367 516.190 -47.423 517.410 -47.480 518.630C-47.677 519.743 -47.873 520.857 -48.070 521.970C-48.070 522.020 -48.070 522.070 -48.070 522.120C-56.137 517.363 -64.203 512.607 -72.270 507.850C-70.930 507.413 -69.590 506.977 -68.250 506.540C-67.143 505.887 -66.037 505.233 -64.930 504.580C-64.013 503.800 -63.097 503.020 -62.180 502.240C-61.313 501.350 -60.447 500.460 -59.580 499.570C-58.803 498.683 -58.027 497.797 -57.250 496.910C-56.683 495.750 -56.117 494.590 -55.550 493.430C-55.243 492.127 -54.937 490.823 -54.630 489.520C-54.470 488.353 -54.310 487.187 -54.150 486.020C-53.813 484.877 -53.477 483.733 -53.140 482.590C-53.070 481.530 -53.000 480.470 -52.930 479.410C-52.520 478.353 -52.110 477.297 -51.700 476.240C-51.487 475.130 -51.273 474.020 -51.060 472.910C-50.920 471.833 -50.780 470.757 -50.640 469.680C-50.387 468.393 -50.133 467.107 -49.880 465.820C-49.790 464.600 -49.700 463.380 -49.610 462.160C-49.413 461.047 -49.217 459.933 -49.020 458.820C-49.020 458.820 -49.020 458.820 -49.020 458.820C-48.613 457.510 -48.207 456.200 -47.800 454.890C-47.790 454.143 -47.780 453.397 -47.770 452.650C-47.760 452.013 -47.750 451.377 -47.740 450.740C-47.727 450.030 -47.713 449.320 -47.700 448.610C-47.617 447.817 -47.533 447.023 -47.450 446.230C-47.387 445.683 -47.323 445.137 -47.260 444.590C-47.267 443.917 -47.273 443.243 -47.280 442.570C-47.270 441.950 -47.260 441.330 -47.250 440.710C-47.240 440.057 -47.230 439.403 -47.220 438.750C-47.317 438.127 -47.413 437.503 -47.510 436.880C-47.617 436.330 -47.723 435.780 -47.830 435.230C-48.223 434.833 -48.617 434.437 -49.010 434.040C-49.433 433.610 -49.857 433.180 -50.280 432.750C-50.817 432.370 -51.353 431.990 -51.890 431.610C-52.420 431.317 -52.950 431.023 -53.480 430.730C-54.043 430.667 -54.607 430.603 -55.170 430.540C-55.703 430.303 -56.237 430.067 -56.770 429.830C-56.770 429.830 -56.770 429.830 -56.770 429.830C-57.080 428.837 -57.390 427.843 -57.700 426.850C-57.860 426.187 -58.020 425.523 -58.180 424.860C-58.170 424.157 -58.160 423.453 -58.150 422.750C-58.153 422.117 -58.157 421.483 -58.160 420.850C-58.160 420.257 -58.160 419.663 -58.160 419.070C-58.153 418.530 -58.147 417.990 -58.140 417.450C-58.140 417.450 -58.140 417.450 -58.140 417.450" />
</clipPath>
<g clip-path="url(#clip_1_sliznyak-sect.svg)">
<path fill="none" stroke="#000000" stroke-width="0.600" stroke-linecap="butt" d="M2.240 127.890L5.840 130.050L1.040 131.490Z" />
<path fill="none" stroke="#000000" stroke-width="0.600" stroke-linecap="butt" d="M8.240 127.890L10.640 131.490L7.040 131.490Z" />
<path fill="none" stroke="#000000" stroke-width="0.600" stroke-linecap="butt" d="M4.640 132.690L8.240 136.290L3.440 136.290Z" />
<path fill="none" stroke="#000000" stroke-width="0.600" stroke-linecap="butt" d="M19.150 121.260L22.750 123.420L17.950 124.860Z" />
<path fill="none" stroke="#000000" stroke-width="0.600" stroke-linecap="butt" d="M25.150 121.260L27.550 124.860L23.950 124.860Z" />
<path fill="none" stroke="#000000" stroke-width="0.600" stroke-linecap="butt" d="M21.550 126.060L25.150 129.660L20.350 129.660Z" />
<path fill="none" stroke="#000000" stroke-width="0.600" stroke-linecap="butt" d="M33.570 120.350L37.170 122.510L32.370 123.950Z" />
<path fill="none" stroke="#000000" stroke-width="0.600" stroke-linecap="butt" d="M39.570 120.350L41.970 123.950L38.370 123.950Z" />
<path fill="none" stroke="#000000" stroke-width="0.600" stroke-linecap="butt" d="M35.970 125.150L39.570 128.750L34.770 128.750Z" />
<path fill="none" stroke="#000000" stroke-width="0.600" stroke-linecap="butt" d="M56.500 85.840L60.100 88.000L55.300 89.440Z" />
<path fill="none" stroke="#000000" stroke-width="0.600" stroke-linecap="butt" d="M62.500 85.840L64.900 89.440L61.300 89.440Z" />
<path fill="none" stroke="#000000" stroke-width="0.600" stroke-linecap="butt" d="M58.900 90.640L62.500 94.240L57.700 94.240Z" />
<path fill="none" stroke="#000000" stroke-width="0.600" stroke-linecap="butt" d="M72.800 81.870L76.400 84.030L71.600 85.470Z" />
<path fill="none" stroke="#000000" stroke-width="0.600" stroke-linecap="butt" d="M78.800 81.870L81.200 85.470L77.600 85.470Z" />
<path fill="none" stroke="#000000" stroke-width="0.600" stroke-linecap="butt" d="M75.200 86.670L78.800 90.270L74.000 90.270Z" />
<path fill="none" stroke="#000000" stroke-width="0.600" d="M135.470 47.040C135.470 49.440 139.070 49.440 139.070 47.040C139.070 44.640 142.670 44.640 142.670 47.040" />
<path fill="none" stroke="#000000" stroke-width="0.600" d="M165.470 24.320C165.470 26.720 169.070 26.720 169.070 24.320C169.070 21.920 172.670 21.920 172.670 24.320" />
<path fill="none" stroke="#000000" stroke-width="0.600" d="M196.250 14.280C196.250 16.680 199.850 16.680 199.850 14.280C199.850 11.880 203.450 11.880 203.450 14.280" />
<path fill="none" stroke="#000000" stroke-width="0.600" d="M229.100 2.590C229.100 4.990 232.700 4.990 232.700 2.590C232.700 0.190 236.300 0.190 236.300 2.590" />
</g>
</g>
</g>
<g id="G_aaaaaaa_sliznyak-sect.svg">
</g>
<g id="B_aaaaaaa_sliznyak-sect.svg">
<path fill="none" stroke="#000000" stroke-width="0.420" d="M15.860 420.450L15.270 417.040L15.530 413.220L15.760 410.540L15.740 406.950L15.470 404.220L15.580 401.160L15.880 397.670L16.220 394.760L16.500 392.090L17.130 388.960L17.740 385.840L18.360 382.710L18.090 379.960L17.270 376.600L17.010 373.530L16.550 370.380L16.190 366.690L15.810 363.110L15.330 359.140L15.600 356.400L16.030 352.880L16.420 349.980L16.730 347.070L17.080 343.900L17.180 340.660L17.530 337.490L17.730 333.750L17.540 330.110L17.670 326.710L17.840 323.130L18.150 318.780L18.200 315.820L18.900 312.700L19.590 309.230L20.180 306.210L20.730 303.430L21.430 299.860L22.340 295.280L23.000 291.890L23.570 289.030L24.130 286.160L24.740 283.040L25.500 279.220L26.180 275.760L26.990 273.030L28.190 270.120L29.150 267.510L28.240 264.360L28.230 261.200L28.120 257.210L28.060 254.320L28.430 250.600L29.080 247.310L29.660 244.360L30.210 241.590L30.890 238.110L31.750 235.580L32.570 232.760L33.740 229.570L34.720 226.880L35.910 224.050L36.630 221.310L37.500 218.240" />
<path fill="none" stroke="#000000" stroke-width="0.420" d="M37.500 218.240L36.890 215.550L36.860 213.850L37.170 212.220L36.420 210.460L35.320 209.060L33.720 208.500L32.060 208.160L30.350 207.830L28.450 207.650L26.460 207.240L24.450 207.130L22.500 206.980L20.340 206.670L18.330 206.560L16.490 206.470L14.250 206.370L11.870 206.660L10.150 206.540L7.800 206.460L5.510 206.390L3.510 205.950L2.010 204.900L0.720 203.750L0.230 202.160L0.300 200.370L0.750 198.450L1.630 196.800L3.050 195.270L4.850 193.920L6.190 193.020L7.630 192.010L9.330 190.790L11.420 189.830L13.400 189.300L15.430 188.360L16.850 187.390L18.720 186.410L20.610 185.760L22.720 184.530L24.670 183.640L26.520 182.970L28.530 182.300L30.440 181.630L32.230 180.960L33.850 180.060" />
<path fill="none" stroke="#000000" stroke-width="0.420" d="M33.850 180.060L37.590 175.550L41.840 170.680L46.080 166.000L49.790 161.390L53.770 156.120L57.340 151.440L61.670 146.070L65.400 141.280L68.470 136.250L72.480 131.790L75.470 130.520" />
<path fill="none" stroke="#000000" stroke-width="0.420" d="M75.470 130.520L78.430 129.960L81.470 128.890L85.270 127.950L88.860 126.670L92.070 125.560L95.060 124.450L98.120 124.030L100.980 124.210L104.090 124.300L107.030 124.130L110.220 124.220L112.880 124.040L115.800 123.540L118.460 123.540L121.030 121.330L122.870 118.690L123.340 115.920L123.350 113.200L123.370 110.540L123.400 107.440" />
<path fill="none" stroke="#000000" stroke-width="0.420" d="M123.400 107.440L122.060 105.110L121.500 102.310L121.400 99.190L122.120 96.520L125.640 93.680L129.420 91.550L133.110 89.430L136.450 88.000L139.980 87.030L142.800 87.120L146.340 86.590L150.240 86.600L154.130 86.600L156.880 86.340L159.890 85.370L164.070 84.300L167.170 84.230L171.640 83.320" />
<path fill="none" stroke="#000000" stroke-width="0.420" d="M171.640 83.320L176.710 79.290L181.590 74.880L185.750 71.150L188.800 66.300L189.900 60.120L191.860 57.470" />
<path fill="none" stroke="#000000" stroke-width="0.420" d="M191.860 57.470L194.080 55.400L197.260 53.620L200.420 52.190L203.680 50.650L206.920 49.740L210.040 48.710L213.540 47.940L216.420 47.070L220.110 40.030" />
<path fill="none" stroke="#000000" stroke-width="0.420" d="M220.110 40.030L223.380 36.850L226.640 34.380L229.290 32.260L231.660 30.490L234.680 28.380L237.690 26.910L240.960 25.370L243.490 24.360L246.530 23.710L249.810 22.710L253.000 21.890L255.910 21.450L258.620 21.460L261.410 20.670L265.160 19.350L268.400 18.360" />
<path fill="none" stroke="#000000" stroke-width="0.420" d="M268.400 18.360L270.570 16.190L273.230 14.460L275.950 12.560L280.010 9.530L284.590 7.370L288.380 5.290L292.160 3.660L295.150 2.630L298.310 2.300L302.160 2.330L305.330 1.650L308.220 1.850L312.180 2.590" />
<path fill="none" stroke="#000000" stroke-width="0.420" d="M312.180 2.590L317.190 0.880L320.780 1.170L323.580 1.370L326.300 2.540L328.920 3.790L331.010 5.570L333.010 7.780L334.480 10.080L336.220 12.730L337.770 16.260L339.410 19.440L339.730 22.320L339.710 24.990L339.770 28.060L338.910 30.780L337.180 33.050L335.040 34.700L332.400 35.560L329.240 35.520L326.430 35.500L323.450 35.380L319.570 35.870L316.930 36.290L314.380 37.410L311.200 38.340L308.730 39.290L305.640 40.850L302.110 42.310L298.840 44.400L294.660 46.660L291.300 47.420L288.300 48.350L284.690 48.220L282.040 48.540L279.310 48.410L274.940 49.040L272.310 49.630" />
<path fill="none" stroke="#000000" stroke-width="0.420" d="M272.310 49.630L269.630 50.220L266.580 49.650L263.790 48.820L260.830 48.430L257.150 48.390L253.630 48.360L250.630 48.260L248.220 49.500L245.600 51.550L242.440 53.430L239.910 55.030L236.650 56.990L233.840 58.590L230.830 60.730L228.200 62.730L225.450 64.280L223.200 65.910L220.470 67.550L217.590 67.510L214.440 67.360L211.350 67.930L208.460 68.030L204.940 68.450L201.850 69.610L199.110 71.660L197.670 74.560L196.140 77.460L194.720 79.820L193.820 82.700L193.140 85.780L192.560 88.440L192.070 91.450L191.140 94.560L190.320 97.350L189.280 100.030L187.670 102.670L185.830 105.270L185.030 108.140L183.770 110.700L182.150 113.530L178.270 116.380" />
<path fill="none" stroke="#000000" stroke-width="0.420" d="M178.270 116.380L172.470 120.570L168.670 125.070L165.130 130.120L161.760 134.340L159.090 139.640L157.390 145.630L154.980 151.720L152.310 157.380L149.390 162.430L146.200 167.650L143.100 172.790L139.390 178.020L136.470 183.250L133.820 189.370L131.070 195.520L128.660 201.980L126.570 209.220L125.150 215.520L123.590 221.150L121.220 227.970L118.660 234.250L117.640 241.740L114.560 247.950L112.100 254.120L108.140 261.700L102.940 270.050" />
<path fill="none" stroke="#000000" stroke-width="0.420" d="M102.940 270.050L100.150 272.560L97.180 274.470L93.030 276.310" />
<path fill="none" stroke="#000000" stroke-width="0.420" d="M93.030 276.310L90.090 276.360L87.630 276.200L85.810 275.950L84.150 275.330L82.820 273.900L81.520 272.770L80.180 271.340L79.270 269.910L79.240 267.920L79.570 265.800L79.520 263.870L79.010 261.990L78.940 259.330L78.650 257.260L78.270 255.560L77.800 253.370L77.240 251.300L76.200 249.120L75.180 246.820L73.910 244.520L73.030 242.080L72.180 240.130L70.480 239.060L67.980 238.430L65.770 238.440L63.540 238.590L61.330 238.580L59.190 239.380L57.430 240.630L55.640 242.550L54.410 244.700L53.450 246.510L52.830 248.450L52.270 250.170L51.280 252.260L50.330 254.180L49.160 256.050L48.740 258.090L48.360 259.910L47.830 262.500L47.420 264.480L47.020 266.460L46.640 268.330L46.280 270.150L45.740 271.990L45.360 273.860L44.920 276.060L44.570 277.820L44.160 279.850L43.860 281.680L43.030 283.230L42.190 284.890L41.480 286.460L41.060 288.550L40.740 290.200L40.280 292.500L39.660 294.780L39.320 296.480L38.890 298.390L38.840 300.660L38.730 302.690L38.630 304.900L38.910 306.950L39.090 309.210L39.320 311.540L39.470 313.680L39.440 315.550L39.460 318.070L39.570 320.090L39.630 321.810L39.150 324.220L38.970 326.020L39.310 327.730" />
<path fill="none" stroke="#000000" stroke-width="0.420" d="M39.310 327.730L39.860 331.090L40.140 333.300L40.500 335.970L40.180 338.890L40.140 341.760L40.200 345.010L40.640 348.060L41.310 351.150L41.830 354.390L42.560 357.190L42.890 360.070L43.140 363.000L43.180 365.580L42.940 368.330L42.090 371.330L41.390 373.860L40.200 376.830L39.290 379.900L36.910 383.650" />
<path fill="none" stroke="#000000" stroke-width="0.420" d="M36.910 383.650L36.090 384.990L35.050 386.420L34.570 387.840L34.280 389.220L34.070 390.590L34.070 391.980L34.060 393.670L34.630 395.560L35.510 397.450L36.760 399.060L38.180 400.460L39.340 401.720L40.650 403.100L41.120 404.690L41.090 406.730L40.790 408.980L40.430 410.730L39.770 412.530L39.410 414.600L38.790 416.500L37.810 418.130L36.490 419.340L35.370 420.640L34.050 422.160L33.620 423.850L33.750 425.710L34.040 427.360L34.170 429.010L34.680 430.560L35.930 432.120L37.620 432.740" />
<path fill="none" stroke="#000000" stroke-width="0.420" d="M37.620 432.740L39.490 434.270L40.590 435.920L40.560 437.940L40.510 440.590L40.460 443.400L40.430 445.530" />
<path fill="none" stroke="#000000" stroke-width="0.420" d="M40.430 445.530L39.140 449.850L38.930 453.080L38.540 457.060L38.370 460.880L37.660 465.060L37.220 469.190L37.170 472.590L37.100 476.360L37.040 480.340L36.960 484.640L36.900 488.620L36.570 492.380L35.670 495.550L34.690 498.760L32.750 501.560L31.320 504.660L28.820 507.860L27.920 511.190L27.230 514.370L26.690 517.970L26.520 521.630L25.930 524.970L25.930 525.120" />
<path fill="none" stroke="#000000" stroke-width="0.420" d="M1.730 510.850L5.750 509.540L9.070 507.580L11.820 505.240L14.420 502.570L16.750 499.910L18.450 496.430L19.370 492.520L19.850 489.020L20.860 485.590L21.070 482.410L22.300 479.240L22.940 475.910L23.360 472.680L24.120 468.820L24.390 465.160L24.980 461.820" />
<path fill="none" stroke="#000000" stroke-width="0.420" d="M24.980 461.820L26.200 457.890L26.230 455.650L26.260 453.740L26.300 451.610L26.550 449.230L26.740 447.590L26.720 445.570L26.750 443.710L26.780 441.750L26.490 439.880L26.170 438.230L24.990 437.040L23.720 435.750L22.110 434.610L20.520 433.730L18.830 433.540L17.230 432.830" />
<path fill="none" stroke="#000000" stroke-width="0.420" d="M17.230 432.830L16.300 429.850L15.820 427.860L15.850 425.750L15.840 423.850L15.840 422.070L15.860 420.450" />
</g>
<g id="I_aaaaaaa_sliznyak-sect.svg">
<path fill="inherit" stroke="none" d="M15.860 420.450C15.663 419.313 15.467 418.177 15.270 417.040C15.357 415.767 15.443 414.493 15.530 413.220C15.607 412.327 15.683 411.433 15.760 410.540C15.753 409.343 15.747 408.147 15.740 406.950C15.650 406.040 15.560 405.130 15.470 404.220C15.507 403.200 15.543 402.180 15.580 401.160C15.680 399.997 15.780 398.833 15.880 397.670C15.993 396.700 16.107 395.730 16.220 394.760C16.313 393.870 16.407 392.980 16.500 392.090C16.710 391.047 16.920 390.003 17.130 388.960C17.333 387.920 17.537 386.880 17.740 385.840C17.947 384.797 18.153 383.753 18.360 382.710C18.270 381.793 18.180 380.877 18.090 379.960C17.817 378.840 17.543 377.720 17.270 376.600C17.183 375.577 17.097 374.553 17.010 373.530C16.857 372.480 16.703 371.430 16.550 370.380C16.430 369.150 16.310 367.920 16.190 366.690C16.063 365.497 15.937 364.303 15.810 363.110C15.650 361.787 15.490 360.463 15.330 359.140C15.420 358.227 15.510 357.313 15.600 356.400C15.743 355.227 15.887 354.053 16.030 352.880C16.160 351.913 16.290 350.947 16.420 349.980C16.523 349.010 16.627 348.040 16.730 347.070C16.847 346.013 16.963 344.957 17.080 343.900C17.113 342.820 17.147 341.740 17.180 340.660C17.297 339.603 17.413 338.547 17.530 337.490C17.597 336.243 17.663 334.997 17.730 333.750C17.667 332.537 17.603 331.323 17.540 330.110C17.583 328.977 17.627 327.843 17.670 326.710C17.727 325.517 17.783 324.323 17.840 323.130C17.943 321.680 18.047 320.230 18.150 318.780C18.167 317.793 18.183 316.807 18.200 315.820C18.433 314.780 18.667 313.740 18.900 312.700C19.130 311.543 19.360 310.387 19.590 309.230C19.787 308.223 19.983 307.217 20.180 306.210C20.363 305.283 20.547 304.357 20.730 303.430C20.963 302.240 21.197 301.050 21.430 299.860C21.733 298.333 22.037 296.807 22.340 295.280C22.560 294.150 22.780 293.020 23.000 291.890C23.190 290.937 23.380 289.983 23.570 289.030C23.757 288.073 23.943 287.117 24.130 286.160C24.333 285.120 24.537 284.080 24.740 283.040C24.993 281.767 25.247 280.493 25.500 279.220C25.727 278.067 25.953 276.913 26.180 275.760C26.450 274.850 26.720 273.940 26.990 273.030C27.390 272.060 27.790 271.090 28.190 270.120C28.510 269.250 28.830 268.380 29.150 267.510C28.847 266.460 28.543 265.410 28.240 264.360C28.237 263.307 28.233 262.253 28.230 261.200C28.193 259.870 28.157 258.540 28.120 257.210C28.100 256.247 28.080 255.283 28.060 254.320C28.183 253.080 28.307 251.840 28.430 250.600C28.647 249.503 28.863 248.407 29.080 247.310C29.273 246.327 29.467 245.343 29.660 244.360C29.843 243.437 30.027 242.513 30.210 241.590C30.437 240.430 30.663 239.270 30.890 238.110C31.177 237.267 31.463 236.423 31.750 235.580C32.023 234.640 32.297 233.700 32.570 232.760C32.960 231.697 33.350 230.633 33.740 229.570C34.067 228.673 34.393 227.777 34.720 226.880C35.117 225.937 35.513 224.993 35.910 224.050C36.150 223.137 36.390 222.223 36.630 221.310C36.920 220.287 37.210 219.263 37.500 218.240C37.500 218.240 37.500 218.240 37.500 218.240C37.297 217.343 37.093 216.447 36.890 215.550C36.880 214.983 36.870 214.417 36.860 213.850C36.963 213.307 37.067 212.763 37.170 212.220C36.920 211.633 36.670 211.047 36.420 210.460C36.053 209.993 35.687 209.527 35.320 209.060C34.787 208.873 34.253 208.687 33.720 208.500C33.167 208.387 32.613 208.273 32.060 208.160C31.490 208.050 30.920 207.940 30.350 207.830C29.717 207.770 29.083 207.710 28.450 207.650C27.787 207.513 27.123 207.377 26.460 207.240C25.790 207.203 25.120 207.167 24.450 207.130C23.800 207.080 23.150 207.030 22.500 206.980C21.780 206.877 21.060 206.773 20.340 206.670C19.670 206.633 19.000 206.597 18.330 206.560C17.717 206.530 17.103 206.500 16.490 206.470C15.743 206.437 14.997 206.403 14.250 206.370C13.457 206.467 12.663 206.563 11.870 206.660C11.297 206.620 10.723 206.580 10.150 206.540C9.367 206.513 8.583 206.487 7.800 206.460C7.037 206.437 6.273 206.413 5.510 206.390C4.843 206.243 4.177 206.097 3.510 205.950C3.010 205.600 2.510 205.250 2.010 204.900C1.580 204.517 1.150 204.133 0.720 203.750C0.557 203.220 0.393 202.690 0.230 202.160C0.253 201.563 0.277 200.967 0.300 200.370C0.450 199.730 0.600 199.090 0.750 198.450C1.043 197.900 1.337 197.350 1.630 196.800C2.103 196.290 2.577 195.780 3.050 195.270C3.650 194.820 4.250 194.370 4.850 193.920C5.297 193.620 5.743 193.320 6.190 193.020C6.670 192.683 7.150 192.347 7.630 192.010C8.197 191.603 8.763 191.197 9.330 190.790C10.027 190.470 10.723 190.150 11.420 189.830C12.080 189.653 12.740 189.477 13.400 189.300C14.077 188.987 14.753 188.673 15.430 188.360C15.903 188.037 16.377 187.713 16.850 187.390C17.473 187.063 18.097 186.737 18.720 186.410C19.350 186.193 19.980 185.977 20.610 185.760C21.313 185.350 22.017 184.940 22.720 184.530C23.370 184.233 24.020 183.937 24.670 183.640C25.287 183.417 25.903 183.193 26.520 182.970C27.190 182.747 27.860 182.523 28.530 182.300C29.167 182.077 29.803 181.853 30.440 181.630C31.037 181.407 31.633 181.183 32.230 180.960C32.770 180.660 33.310 180.360 33.850 180.060C33.850 180.060 33.850 180.060 33.850 180.060C35.097 178.557 36.343 177.053 37.590 175.550C39.007 173.927 40.423 172.303 41.840 170.680C43.253 169.120 44.667 167.560 46.080 166.000C47.317 164.463 48.553 162.927 49.790 161.390C51.117 159.633 52.443 157.877 53.770 156.120C54.960 154.560 56.150 153.000 57.340 151.440C58.783 149.650 60.227 147.860 61.670 146.070C62.913 144.473 64.157 142.877 65.400 141.280C66.423 139.603 67.447 137.927 68.470 136.250C69.807 134.763 71.143 133.277 72.480 131.790C73.477 131.367 74.473 130.943 75.470 130.520C75.470 130.520 75.470 130.520 75.470 130.520C76.457 130.333 77.443 130.147 78.430 129.960C79.443 129.603 80.457 129.247 81.470 128.890C82.737 128.577 84.003 128.263 85.270 127.950C86.467 127.523 87.663 127.097 88.860 126.670C89.930 126.300 91.000 125.930 92.070 125.560C93.067 125.190 94.063 124.820 95.060 124.450C96.080 124.310 97.100 124.170 98.120 124.030C99.073 124.090 100.027 124.150 100.980 124.210C102.017 124.240 103.053 124.270 104.090 124.300C105.070 124.243 106.050 124.187 107.030 124.130C108.093 124.160 109.157 124.190 110.220 124.220C111.107 124.160 111.993 124.100 112.880 124.040C113.853 123.873 114.827 123.707 115.800 123.540C116.687 123.540 117.573 123.540 118.460 123.540C119.317 122.803 120.173 122.067 121.030 121.330C121.643 120.450 122.257 119.570 122.870 118.690C123.027 117.767 123.183 116.843 123.340 115.920C123.343 115.013 123.347 114.107 123.350 113.200C123.357 112.313 123.363 111.427 123.370 110.540C123.380 109.507 123.390 108.473 123.400 107.440C123.400 107.440 123.400 107.440 123.400 107.440C122.953 106.663 122.507 105.887 122.060 105.110C121.873 104.177 121.687 103.243 121.500 102.310C121.467 101.270 121.433 100.230 121.400 99.190C121.640 98.300 121.880 97.410 122.120 96.520C123.293 95.573 124.467 94.627 125.640 93.680C126.900 92.970 128.160 92.260 129.420 91.550C130.650 90.843 131.880 90.137 133.110 89.430C134.223 88.953 135.337 88.477 136.450 88.000C137.627 87.677 138.803 87.353 139.980 87.030C140.920 87.060 141.860 87.090 142.800 87.120C143.980 86.943 145.160 86.767 146.340 86.590C147.640 86.593 148.940 86.597 150.240 86.600C151.537 86.600 152.833 86.600 154.130 86.600C155.047 86.513 155.963 86.427 156.880 86.340C157.883 86.017 158.887 85.693 159.890 85.370C161.283 85.013 162.677 84.657 164.070 84.300C165.103 84.277 166.137 84.253 167.170 84.230C168.660 83.927 170.150 83.623 171.640 83.320C171.640 83.320 171.640 83.320 171.640 83.320C173.330 81.977 175.020 80.633 176.710 79.290C178.337 77.820 179.963 76.350 181.590 74.880C182.977 73.637 184.363 72.393 185.750 71.150C186.767 69.533 187.783 67.917 188.800 66.300C189.167 64.240 189.533 62.180 189.900 60.120C190.553 59.237 191.207 58.353 191.860 57.470C191.860 57.470 191.860 57.470 191.860 57.470C192.600 56.780 193.340 56.090 194.080 55.400C195.140 54.807 196.200 54.213 197.260 53.620C198.313 53.143 199.367 52.667 200.420 52.190C201.507 51.677 202.593 51.163 203.680 50.650C204.760 50.347 205.840 50.043 206.920 49.740C207.960 49.397 209.000 49.053 210.040 48.710C211.207 48.453 212.373 48.197 213.540 47.940C214.500 47.650 215.460 47.360 216.420 47.070C217.650 44.723 218.880 42.377 220.110 40.030C220.110 40.030 220.110 40.030 220.110 40.030C221.200 38.970 222.290 37.910 223.380 36.850C224.467 36.027 225.553 35.203 226.640 34.380C227.523 33.673 228.407 32.967 229.290 32.260C230.080 31.670 230.870 31.080 231.660 30.490C232.667 29.787 233.673 29.083 234.680 28.380C235.683 27.890 236.687 27.400 237.690 26.910C238.780 26.397 239.870 25.883 240.960 25.370C241.803 25.033 242.647 24.697 243.490 24.360C244.503 24.143 245.517 23.927 246.530 23.710C247.623 23.377 248.717 23.043 249.810 22.710C250.873 22.437 251.937 22.163 253.000 21.890C253.970 21.743 254.940 21.597 255.910 21.450C256.813 21.453 257.717 21.457 258.620 21.460C259.550 21.197 260.480 20.933 261.410 20.670C262.660 20.230 263.910 19.790 265.160 19.350C266.240 19.020 267.320 18.690 268.400 18.360C268.400 18.360 268.400 18.360 268.400 18.360C269.123 17.637 269.847 16.913 270.570 16.190C271.457 15.613 272.343 15.037 273.230 14.460C274.137 13.827 275.043 13.193 275.950 12.560C277.303 11.550 278.657 10.540 280.010 9.530C281.537 8.810 283.063 8.090 284.590 7.370C285.853 6.677 287.117 5.983 288.380 5.290C289.640 4.747 290.900 4.203 292.160 3.660C293.157 3.317 294.153 2.973 295.150 2.630C296.203 2.520 297.257 2.410 298.310 2.300C299.593 2.310 300.877 2.320 302.160 2.330C303.217 2.103 304.273 1.877 305.330 1.650C306.293 1.717 307.257 1.783 308.220 1.850C309.540 2.097 310.860 2.343 312.180 2.590C312.180 2.590 312.180 2.590 312.180 2.590C313.850 2.020 315.520 1.450 317.190 0.880C318.387 0.977 319.583 1.073 320.780 1.170C321.713 1.237 322.647 1.303 323.580 1.370C324.487 1.760 325.393 2.150 326.300 2.540C327.173 2.957 328.047 3.373 328.920 3.790C329.617 4.383 330.313 4.977 331.010 5.570C331.677 6.307 332.343 7.043 333.010 7.780C333.500 8.547 333.990 9.313 334.480 10.080C335.060 10.963 335.640 11.847 336.220 12.730C336.737 13.907 337.253 15.083 337.770 16.260C338.317 17.320 338.863 18.380 339.410 19.440C339.517 20.400 339.623 21.360 339.730 22.320C339.723 23.210 339.717 24.100 339.710 24.990C339.730 26.013 339.750 27.037 339.770 28.060C339.483 28.967 339.197 29.873 338.910 30.780C338.333 31.537 337.757 32.293 337.180 33.050C336.467 33.600 335.753 34.150 335.040 34.700C334.160 34.987 333.280 35.273 332.400 35.560C331.347 35.547 330.293 35.533 329.240 35.520C328.303 35.513 327.367 35.507 326.430 35.500C325.437 35.460 324.443 35.420 323.450 35.380C322.157 35.543 320.863 35.707 319.570 35.870C318.690 36.010 317.810 36.150 316.930 36.290C316.080 36.663 315.230 37.037 314.380 37.410C313.320 37.720 312.260 38.030 311.200 38.340C310.377 38.657 309.553 38.973 308.730 39.290C307.700 39.810 306.670 40.330 305.640 40.850C304.463 41.337 303.287 41.823 302.110 42.310C301.020 43.007 299.930 43.703 298.840 44.400C297.447 45.153 296.053 45.907 294.660 46.660C293.540 46.913 292.420 47.167 291.300 47.420C290.300 47.730 289.300 48.040 288.300 48.350C287.097 48.307 285.893 48.263 284.690 48.220C283.807 48.327 282.923 48.433 282.040 48.540C281.130 48.497 280.220 48.453 279.310 48.410C277.853 48.620 276.397 48.830 274.940 49.040C274.063 49.237 273.187 49.433 272.310 49.630C272.310 49.630 272.310 49.630 272.310 49.630C271.417 49.827 270.523 50.023 269.630 50.220C268.613 50.030 267.597 49.840 266.580 49.650C265.650 49.373 264.720 49.097 263.790 48.820C262.803 48.690 261.817 48.560 260.830 48.430C259.603 48.417 258.377 48.403 257.150 48.390C255.977 48.380 254.803 48.370 253.630 48.360C252.630 48.327 251.630 48.293 250.630 48.260C249.827 48.673 249.023 49.087 248.220 49.500C247.347 50.183 246.473 50.867 245.600 51.550C244.547 52.177 243.493 52.803 242.440 53.430C241.597 53.963 240.753 54.497 239.910 55.030C238.823 55.683 237.737 56.337 236.650 56.990C235.713 57.523 234.777 58.057 233.840 58.590C232.837 59.303 231.833 60.017 230.830 60.730C229.953 61.397 229.077 62.063 228.200 62.730C227.283 63.247 226.367 63.763 225.450 64.280C224.700 64.823 223.950 65.367 223.200 65.910C222.290 66.457 221.380 67.003 220.470 67.550C219.510 67.537 218.550 67.523 217.590 67.510C216.540 67.460 215.490 67.410 214.440 67.360C213.410 67.550 212.380 67.740 211.350 67.930C210.387 67.963 209.423 67.997 208.460 68.030C207.287 68.170 206.113 68.310 204.940 68.450C203.910 68.837 202.880 69.223 201.850 69.610C200.937 70.293 200.023 70.977 199.110 71.660C198.630 72.627 198.150 73.593 197.670 74.560C197.160 75.527 196.650 76.493 196.140 77.460C195.667 78.247 195.193 79.033 194.720 79.820C194.420 80.780 194.120 81.740 193.820 82.700C193.593 83.727 193.367 84.753 193.140 85.780C192.947 86.667 192.753 87.553 192.560 88.440C192.397 89.443 192.233 90.447 192.070 91.450C191.760 92.487 191.450 93.523 191.140 94.560C190.867 95.490 190.593 96.420 190.320 97.350C189.973 98.243 189.627 99.137 189.280 100.030C188.743 100.910 188.207 101.790 187.670 102.670C187.057 103.537 186.443 104.403 185.830 105.270C185.563 106.227 185.297 107.183 185.030 108.140C184.610 108.993 184.190 109.847 183.770 110.700C183.230 111.643 182.690 112.587 182.150 113.530C180.857 114.480 179.563 115.430 178.270 116.380C178.270 116.380 178.270 116.380 178.270 116.380C176.337 117.777 174.403 119.173 172.470 120.570C171.203 122.070 169.937 123.570 168.670 125.070C167.490 126.753 166.310 128.437 165.130 130.120C164.007 131.527 162.883 132.933 161.760 134.340C160.870 136.107 159.980 137.873 159.090 139.640C158.523 141.637 157.957 143.633 157.390 145.630C156.587 147.660 155.783 149.690 154.980 151.720C154.090 153.607 153.200 155.493 152.310 157.380C151.337 159.063 150.363 160.747 149.390 162.430C148.327 164.170 147.263 165.910 146.200 167.650C145.167 169.363 144.133 171.077 143.100 172.790C141.863 174.533 140.627 176.277 139.390 178.020C138.417 179.763 137.443 181.507 136.470 183.250C135.587 185.290 134.703 187.330 133.820 189.370C132.903 191.420 131.987 193.470 131.070 195.520C130.267 197.673 129.463 199.827 128.660 201.980C127.963 204.393 127.267 206.807 126.570 209.220C126.097 211.320 125.623 213.420 125.150 215.520C124.630 217.397 124.110 219.273 123.590 221.150C122.800 223.423 122.010 225.697 121.220 227.970C120.367 230.063 119.513 232.157 118.660 234.250C118.320 236.747 117.980 239.243 117.640 241.740C116.613 243.810 115.587 245.880 114.560 247.950C113.740 250.007 112.920 252.063 112.100 254.120C110.780 256.647 109.460 259.173 108.140 261.700C106.407 264.483 104.673 267.267 102.940 270.050C102.940 270.050 102.940 270.050 102.940 270.050C102.010 270.887 101.080 271.723 100.150 272.560C99.160 273.197 98.170 273.833 97.180 274.470C95.797 275.083 94.413 275.697 93.030 276.310C93.030 276.310 93.030 276.310 93.030 276.310C92.050 276.327 91.070 276.343 90.090 276.360C89.270 276.307 88.450 276.253 87.630 276.200C87.023 276.117 86.417 276.033 85.810 275.950C85.257 275.743 84.703 275.537 84.150 275.330C83.707 274.853 83.263 274.377 82.820 273.900C82.387 273.523 81.953 273.147 81.520 272.770C81.073 272.293 80.627 271.817 80.180 271.340C79.877 270.863 79.573 270.387 79.270 269.910C79.260 269.247 79.250 268.583 79.240 267.920C79.350 267.213 79.460 266.507 79.570 265.800C79.553 265.157 79.537 264.513 79.520 263.870C79.350 263.243 79.180 262.617 79.010 261.990C78.987 261.103 78.963 260.217 78.940 259.330C78.843 258.640 78.747 257.950 78.650 257.260C78.523 256.693 78.397 256.127 78.270 255.560C78.113 254.830 77.957 254.100 77.800 253.370C77.613 252.680 77.427 251.990 77.240 251.300C76.893 250.573 76.547 249.847 76.200 249.120C75.860 248.353 75.520 247.587 75.180 246.820C74.757 246.053 74.333 245.287 73.910 244.520C73.617 243.707 73.323 242.893 73.030 242.080C72.747 241.430 72.463 240.780 72.180 240.130C71.613 239.773 71.047 239.417 70.480 239.060C69.647 238.850 68.813 238.640 67.980 238.430C67.243 238.433 66.507 238.437 65.770 238.440C65.027 238.490 64.283 238.540 63.540 238.590C62.803 238.587 62.067 238.583 61.330 238.580C60.617 238.847 59.903 239.113 59.190 239.380C58.603 239.797 58.017 240.213 57.430 240.630C56.833 241.270 56.237 241.910 55.640 242.550C55.230 243.267 54.820 243.983 54.410 244.700C54.090 245.303 53.770 245.907 53.450 246.510C53.243 247.157 53.037 247.803 52.830 248.450C52.643 249.023 52.457 249.597 52.270 250.170C51.940 250.867 51.610 251.563 51.280 252.260C50.963 252.900 50.647 253.540 50.330 254.180C49.940 254.803 49.550 255.427 49.160 256.050C49.020 256.730 48.880 257.410 48.740 258.090C48.613 258.697 48.487 259.303 48.360 259.910C48.183 260.773 48.007 261.637 47.830 262.500C47.693 263.160 47.557 263.820 47.420 264.480C47.287 265.140 47.153 265.800 47.020 266.460C46.893 267.083 46.767 267.707 46.640 268.330C46.520 268.937 46.400 269.543 46.280 270.150C46.100 270.763 45.920 271.377 45.740 271.990C45.613 272.613 45.487 273.237 45.360 273.860C45.213 274.593 45.067 275.327 44.920 276.060C44.803 276.647 44.687 277.233 44.570 277.820C44.433 278.497 44.297 279.173 44.160 279.850C44.060 280.460 43.960 281.070 43.860 281.680C43.583 282.197 43.307 282.713 43.030 283.230C42.750 283.783 42.470 284.337 42.190 284.890C41.953 285.413 41.717 285.937 41.480 286.460C41.340 287.157 41.200 287.853 41.060 288.550C40.953 289.100 40.847 289.650 40.740 290.200C40.587 290.967 40.433 291.733 40.280 292.500C40.073 293.260 39.867 294.020 39.660 294.780C39.547 295.347 39.433 295.913 39.320 296.480C39.177 297.117 39.033 297.753 38.890 298.390C38.873 299.147 38.857 299.903 38.840 300.660C38.803 301.337 38.767 302.013 38.730 302.690C38.697 303.427 38.663 304.163 38.630 304.900C38.723 305.583 38.817 306.267 38.910 306.950C38.970 307.703 39.030 308.457 39.090 309.210C39.167 309.987 39.243 310.763 39.320 311.540C39.370 312.253 39.420 312.967 39.470 313.680C39.460 314.303 39.450 314.927 39.440 315.550C39.447 316.390 39.453 317.230 39.460 318.070C39.497 318.743 39.533 319.417 39.570 320.090C39.590 320.663 39.610 321.237 39.630 321.810C39.470 322.613 39.310 323.417 39.150 324.220C39.090 324.820 39.030 325.420 38.970 326.020C39.083 326.590 39.197 327.160 39.310 327.730C39.310 327.730 39.310 327.730 39.310 327.730C39.493 328.850 39.677 329.970 39.860 331.090C39.953 331.827 40.047 332.563 40.140 333.300C40.260 334.190 40.380 335.080 40.500 335.970C40.393 336.943 40.287 337.917 40.180 338.890C40.167 339.847 40.153 340.803 40.140 341.760C40.160 342.843 40.180 343.927 40.200 345.010C40.347 346.027 40.493 347.043 40.640 348.060C40.863 349.090 41.087 350.120 41.310 351.150C41.483 352.230 41.657 353.310 41.830 354.390C42.073 355.323 42.317 356.257 42.560 357.190C42.670 358.150 42.780 359.110 42.890 360.070C42.973 361.047 43.057 362.023 43.140 363.000C43.153 363.860 43.167 364.720 43.180 365.580C43.100 366.497 43.020 367.413 42.940 368.330C42.657 369.330 42.373 370.330 42.090 371.330C41.857 372.173 41.623 373.017 41.390 373.860C40.993 374.850 40.597 375.840 40.200 376.830C39.897 377.853 39.593 378.877 39.290 379.900C38.497 381.150 37.703 382.400 36.910 383.650C36.910 383.650 36.910 383.650 36.910 383.650C36.637 384.097 36.363 384.543 36.090 384.990C35.743 385.467 35.397 385.943 35.050 386.420C34.890 386.893 34.730 387.367 34.570 387.840C34.473 388.300 34.377 388.760 34.280 389.220C34.210 389.677 34.140 390.133 34.070 390.590C34.070 391.053 34.070 391.517 34.070 391.980C34.067 392.543 34.063 393.107 34.060 393.670C34.250 394.300 34.440 394.930 34.630 395.560C34.923 396.190 35.217 396.820 35.510 397.450C35.927 397.987 36.343 398.523 36.760 399.060C37.233 399.527 37.707 399.993 38.180 400.460C38.567 400.880 38.953 401.300 39.340 401.720C39.777 402.180 40.213 402.640 40.650 403.100C40.807 403.630 40.963 404.160 41.120 404.690C41.110 405.370 41.100 406.050 41.090 406.730C40.990 407.480 40.890 408.230 40.790 408.980C40.670 409.563 40.550 410.147 40.430 410.730C40.210 411.330 39.990 411.930 39.770 412.530C39.650 413.220 39.530 413.910 39.410 414.600C39.203 415.233 38.997 415.867 38.790 416.500C38.463 417.043 38.137 417.587 37.810 418.130C37.370 418.533 36.930 418.937 36.490 419.340C36.117 419.773 35.743 420.207 35.370 420.640C34.930 421.147 34.490 421.653 34.050 422.160C33.907 422.723 33.763 423.287 33.620 423.850C33.663 424.470 33.707 425.090 33.750 425.710C33.847 426.260 33.943 426.810 34.040 427.360C34.083 427.910 34.127 428.460 34.170 429.010C34.340 429.527 34.510 430.043 34.680 430.560C35.097 431.080 35.513 431.600 35.930 432.120C36.493 432.327 37.057 432.533 37.620 432.740C37.620 432.740 37.620 432.740 37.620 432.740C38.243 433.250 38.867 433.760 39.490 434.270C39.857 434.820 40.223 435.370 40.590 435.920C40.580 436.593 40.570 437.267 40.560 437.940C40.543 438.823 40.527 439.707 40.510 440.590C40.493 441.527 40.477 442.463 40.460 443.400C40.450 444.110 40.440 444.820 40.430 445.530C40.430 445.530 40.430 445.530 40.430 445.530C40.000 446.970 39.570 448.410 39.140 449.850C39.070 450.927 39.000 452.003 38.930 453.080C38.800 454.407 38.670 455.733 38.540 457.060C38.483 458.333 38.427 459.607 38.370 460.880C38.133 462.273 37.897 463.667 37.660 465.060C37.513 466.437 37.367 467.813 37.220 469.190C37.203 470.323 37.187 471.457 37.170 472.590C37.147 473.847 37.123 475.103 37.100 476.360C37.080 477.687 37.060 479.013 37.040 480.340C37.013 481.773 36.987 483.207 36.960 484.640C36.940 485.967 36.920 487.293 36.900 488.620C36.790 489.873 36.680 491.127 36.570 492.380C36.270 493.437 35.970 494.493 35.670 495.550C35.343 496.620 35.017 497.690 34.690 498.760C34.043 499.693 33.397 500.627 32.750 501.560C32.273 502.593 31.797 503.627 31.320 504.660C30.487 505.727 29.653 506.793 28.820 507.860C28.520 508.970 28.220 510.080 27.920 511.190C27.690 512.250 27.460 513.310 27.230 514.370C27.050 515.570 26.870 516.770 26.690 517.970C26.633 519.190 26.577 520.410 26.520 521.630C26.323 522.743 26.127 523.857 25.930 524.970C25.930 525.020 25.930 525.070 25.930 525.120C17.863 520.363 9.797 515.607 1.730 510.850C3.070 510.413 4.410 509.977 5.750 509.540C6.857 508.887 7.963 508.233 9.070 507.580C9.987 506.800 10.903 506.020 11.820 505.240C12.687 504.350 13.553 503.460 14.420 502.570C15.197 501.683 15.973 500.797 16.750 499.910C17.317 498.750 17.883 497.590 18.450 496.430C18.757 495.127 19.063 493.823 19.370 492.520C19.530 491.353 19.690 490.187 19.850 489.020C20.187 487.877 20.523 486.733 20.860 485.590C20.930 484.530 21.000 483.470 21.070 482.410C21.480 481.353 21.890 480.297 22.300 479.240C22.513 478.130 22.727 477.020 22.940 475.910C23.080 474.833 23.220 473.757 23.360 472.680C23.613 471.393 23.867 470.107 24.120 468.820C24.210 467.600 24.300 466.380 24.390 465.160C24.587 464.047 24.783 462.933 24.980 461.820C24.980 461.820 24.980 461.820 24.980 461.820C25.387 460.510 25.793 459.200 26.200 457.890C26.210 457.143 26.220 456.397 26.230 455.650C26.240 455.013 26.250 454.377 26.260 453.740C26.273 453.030 26.287 452.320 26.300 451.610C26.383 450.817 26.467 450.023 26.550 449.230C26.613 448.683 26.677 448.137 26.740 447.590C26.733 446.917 26.727 446.243 26.720 445.570C26.730 444.950 26.740 444.330 26.750 443.710C26.760 443.057 26.770 442.403 26.780 441.750C26.683 441.127 26.587 440.503 26.490 439.880C26.383 439.330 26.277 438.780 26.170 438.230C25.777 437.833 25.383 437.437 24.990 437.040C24.567 436.610 24.143 436.180 23.720 435.750C23.183 435.370 22.647 434.990 22.110 434.610C21.580 434.317 21.050 434.023 20.520 433.730C19.957 433.667 19.393 433.603 18.830 433.540C18.297 433.303 17.763 433.067 17.230 432.830C17.230 432.830 17.230 432.830 17.230 432.830C16.920 431.837 16.610 430.843 16.300 429.850C16.140 429.187 15.980 428.523 15.820 427.860C15.830 427.157 15.840 426.453 15.850 425.750C15.847 425.117 15.843 424.483 15.840 423.850C15.840 423.257 15.840 422.663 15.840 422.070C15.847 421.530 15.853 420.990 15.860 420.450C15.860 420.450 15.860 420.450 15.860 420.450Z" />
</g>
<g id="E_aaaaaaa_sliznyak-sect.svg">
<path fill="none" stroke="#000000" stroke-width="1.200" d="M38.500 218.240L37.890 215.550L37.860 213.850L38.170 212.220L37.420 210.460L36.320 209.060L34.720 208.500L33.060 208.160L31.350 207.830L29.450 207.650L27.460 207.240L25.450 207.130L23.500 206.980L21.340 206.670L19.330 206.560L17.490 206.470L15.250 206.370L12.870 206.660L11.150 206.540L8.800 206.460L6.510 206.390L4.510 205.950L3.010 204.900L1.720 203.750L1.230 202.160L1.300 200.370L1.750 198.450L2.630 196.800L4.050 195.270L5.850 193.920L7.190 193.020L8.630 192.010L10.330 190.790L12.420 189.830L14.400 189.300L16.430 188.360L17.850 187.390L19.720 186.410L21.610 185.760L23.720 184.530L25.670 183.640L27.520 182.970L29.530 182.300L31.440 181.630L33.230 180.960L34.850 180.060" />
<path fill="none" stroke="#000000" stroke-width="1.200" d="M16.860 420.450L16.270 417.040L16.530 413.220L16.760 410.540L16.740 406.950L16.470 404.220L16.580 401.160L16.880 397.670L17.220 394.760L17.500 392.090L18.130 388.960L18.740 385.840L19.360 382.710L19.090 379.960L18.270 376.600L18.010 373.530L17.550 370.380L17.190 366.690L16.810 363.110L16.330 359.140L16.600 356.400L17.030 352.880L17.420 349.980L17.730 347.070L18.080 343.900L18.180 340.660L18.530 337.490L18.730 333.750L18.540 330.110L18.670 326.710L18.840 323.130L19.150 318.780L19.200 315.820L19.900 312.700L20.590 309.230L21.180 306.210L21.730 303.430L22.430 299.860L23.340 295.280L24.000 291.890L24.570 289.030L25.130 286.160L25.740 283.040L26.500 279.220L27.180 275.760L27.990 273.030L29.190 270.120L30.150 267.510L29.240 264.360L29.230 261.200L29.120 257.210L29.060 254.320L29.430 250.600L30.080 247.310L30.660 244.360L31.210 241.590L31.890 238.110L32.750 235.580L33.570 232.760L34.740 229.570L35.720 226.880L36.910 224.050L37.630 221.310L38.500 218.240" />
<path fill="none" stroke="#000000" stroke-width="1.200" d="M94.030 276.310L91.090 276.360L88.630 276.200L86.810 275.950L85.150 275.330L83.820 273.900L82.520 272.770L81.180 271.340L80.270 269.910L80.240 267.920L80.570 265.800L80.520 263.870L80.010 261.990L79.940 259.330L79.650 257.260L79.270 255.560L78.800 253.370L78.240 251.300L77.200 249.120L76.180 246.820L74.910 244.520L74.030 242.080L73.180 240.130L71.480 239.060L68.980 238.430L66.770 238.440L64.540 238.590L62.330 238.580L60.190 239.380L58.430 240.630L56.640 242.550L55.410 244.700L54.450 246.510L53.830 248.450L53.270 250.170L52.280 252.260L51.330 254.180L50.160 256.050L49.740 258.090L49.360 259.910L48.830 262.500L48.420 264.480L48.020 266.460L47.640 268.330L47.280 270.150L46.740 271.990L46.360 273.860L45.920 276.060L45.570 277.820L45.160 279.850L44.860 281.680L44.030 283.230L43.190 284.890L42.480 286.460L42.060 288.550L41.740 290.200L41.280 292.500L40.660 294.780L40.320 296.480L39.890 298.390L39.840 300.660L39.730 302.690L39.630 304.900L39.910 306.950L40.090 309.210L40.320 311.540L40.470 313.680L40.440 315.550L40.460 318.070L40.570 320.090L40.630 321.810L40.150 324.220L39.970 326.020L40.310 327.730" />
<path fill="none" stroke="#000000" stroke-width="1.200" d="M103.940 270.050L101.150 272.560L98.180 274.470L94.030 276.310" />
<path fill="none" stroke="#000000" stroke-width="1.200" d="M269.400 18.360L271.570 16.190L274.230 14.460L276.950 12.560L281.010 9.530L285.590 7.370L289.380 5.290L293.160 3.660L296.150 2.630L299.310 2.300L303.160 2.330L306.330 1.650L309.220 1.850L313.180 2.590" />
<path fill="none" stroke="#000000" stroke-width="1.200" d="M313.180 2.590L318.190 0.880L321.780 1.170L324.580 1.370L327.300 2.540L329.920 3.790L332.010 5.570L334.010 7.780L335.480 10.080L337.220 12.730L338.770 16.260L340.410 19.440L340.730 22.320L340.710 24.990L340.770 28.060L339.910 30.780L338.180 33.050L336.040 34.700L333.400 35.560L330.240 35.520L327.430 35.500L324.450 35.380L320.570 35.870L317.930 36.290L315.380 37.410L312.200 38.340L309.730 39.290L306.640 40.850L303.110 42.310L299.840 44.400L295.660 46.660L292.300 47.420L289.300 48.350L285.690 48.220L283.040 48.540L280.310 48.410L275.940 49.040L273.310 49.630" />
<path fill="none" stroke="#000000" stroke-width="1.200" d="M221.110 40.030L224.380 36.850L227.640 34.380L230.290 32.260L232.660 30.490L235.680 28.380L238.690 26.910L241.960 25.370L244.490 24.360L247.530 23.710L250.810 22.710L254.000 21.890L256.910 21.450L259.620 21.460L262.410 20.670L266.160 19.350L269.400 18.360" />
<path fill="none" stroke="#000000" stroke-width="1.200" d="M273.310 49.630L270.630 50.220L267.580 49.650L264.790 48.820L261.830 48.430L258.150 48.390L254.630 48.360L251.630 48.260L249.220 49.500L246.600 51.550L243.440 53.430L240.910 55.030L237.650 56.990L234.840 58.590L231.830 60.730L229.200 62.730L226.450 64.280L224.200 65.910L221.470 67.550L218.590 67.510L215.440 67.360L212.350 67.930L209.460 68.030L205.940 68.450L202.850 69.610L200.110 71.660L198.670 74.560L197.140 77.460L195.720 79.820L194.820 82.700L194.140 85.780L193.560 88.440L193.070 91.450L192.140 94.560L191.320 97.350L190.280 100.030L188.670 102.670L186.830 105.270L186.030 108.140L184.770 110.700L183.150 113.530L179.270 116.380" />
<path fill="none" stroke="#000000" stroke-width="1.200" d="M192.860 57.470L195.080 55.400L198.260 53.620L201.420 52.190L204.680 50.650L207.920 49.740L211.040 48.710L214.540 47.940L217.420 47.070L221.110 40.030" />
<path fill="none" stroke="#000000" stroke-width="1.200" d="M124.400 107.440L123.060 105.110L122.500 102.310L122.400 99.190L123.120 96.520L126.640 93.680L130.420 91.550L134.110 89.430L137.450 88.000L140.980 87.030L143.800 87.120L147.340 86.590L151.240 86.600L155.130 86.600L157.880 86.340L160.890 85.370L165.070 84.300L168.170 84.230L172.640 83.320" />
<path fill="none" stroke="#000000" stroke-width="1.200" d="M76.470 130.520L79.430 129.960L82.470 128.890L86.270 127.950L89.860 126.670L93.070 125.560L96.060 124.450L99.120 124.030L101.980 124.210L105.090 124.300L108.030 124.130L111.220 124.220L113.880 124.040L116.800 123.540L119.460 123.540L122.030 121.330L123.870 118.690L124.340 115.920L124.350 113.200L124.370 110.540L124.400 107.440" />
<path fill="none" stroke="#000000" stroke-width="1.200" d="M172.640 83.320L177.710 79.290L182.590 74.880L186.750 71.150L189.800 66.300L190.900 60.120L192.860 57.470" />
<path fill="none" stroke="#000000" stroke-width="1.200" d="M179.270 116.380L173.470 120.570L169.670 125.070L166.130 130.120L162.760 134.340L160.090 139.640L158.390 145.630L155.980 151.720L153.310 157.380L150.390 162.430L147.200 167.650L144.100 172.790L140.390 178.020L137.470 183.250L134.820 189.370L132.070 195.520L129.660 201.980L127.570 209.220L126.150 215.520L124.590 221.150L122.220 227.970L119.660 234.250L118.640 241.740L115.560 247.950L113.100 254.120L109.140 261.700L103.940 270.050" />
<path fill="none" stroke="#000000" stroke-width="1.200" d="M34.850 180.060L38.590 175.550L42.840 170.680L47.080 166.000L50.790 161.390L54.770 156.120L58.340 151.440L62.670 146.070L66.400 141.280L69.470 136.250L73.480 131.790L76.470 130.520" />
<path fill="none" stroke="#000000" stroke-width="1.200" d="M40.310 327.730L40.860 331.090L41.140 333.300L41.500 335.970L41.180 338.890L41.140 341.760L41.200 345.010L41.640 348.060L42.310 351.150L42.830 354.390L43.560 357.190L43.890 360.070L44.140 363.000L44.180 365.580L43.940 368.330L43.090 371.330L42.390 373.860L41.200 376.830L40.290 379.900L37.910 383.650" />
<path fill="none" stroke="#000000" stroke-width="1.200" d="M18.230 432.830L17.300 429.850L16.820 427.860L16.850 425.750L16.840 423.850L16.840 422.070L16.860 420.450" />
<path fill="none" stroke="#000000" stroke-width="1.200" d="M37.910 383.650L37.090 384.990L36.050 386.420L35.570 387.840L35.280 389.220L35.070 390.590L35.070 391.980L35.060 393.670L35.630 395.560L36.510 397.450L37.760 399.060L39.180 400.460L40.340 401.720L41.650 403.100L42.120 404.690L42.090 406.730L41.790 408.980L41.430 410.730L40.770 412.530L40.410 414.600L39.790 416.500L38.810 418.130L37.490 419.340L36.370 420.640L35.050 422.160L34.620 423.850L34.750 425.710L35.040 427.360L35.170 429.010L35.680 430.560L36.930 432.120L38.620 432.740" />
<path fill="none" stroke="#000000" stroke-width="1.200" d="M38.620 432.740L40.490 434.270L41.590 435.920L41.560 437.940L41.510 440.590L41.460 443.400L41.430 445.530" />
<path fill="none" stroke="#000000" stroke-width="1.200" d="M25.980 461.820L27.200 457.890L27.230 455.650L27.260 453.740L27.300 451.610L27.550 449.230L27.740 447.590L27.720 445.570L27.750 443.710L27.780 441.750L27.490 439.880L27.170 438.230L25.990 437.040L24.720 435.750L23.110 434.610L21.520 433.730L19.830 433.540L18.230 432.830" />
<path fill="none" stroke="#000000" stroke-width="1.200" d="M41.430 445.530L40.140 449.850L39.930 453.080L39.540 457.060L39.370 460.880L38.660 465.060L38.220 469.190L38.170 472.590L38.100 476.360L38.040 480.340L37.960 484.640L37.900 488.620L37.570 492.380L36.670 495.550L35.690 498.760L33.750 501.560L32.320 504.660L29.820 507.860L28.920 511.190L28.230 514.370L27.690 517.970L27.520 521.630L26.930 524.970L26.930 525.120" />
<path fill="none" stroke="#000000" stroke-width="1.200" d="M2.730 510.850L6.750 509.540L10.070 507.580L12.820 505.240L15.420 502.570L17.750 499.910L19.450 496.430L20.370 492.520L20.850 489.020L21.860 485.590L22.070 482.410L23.300 479.240L23.940 475.910L24.360 472.680L25.120 468.820L25.390 465.160L25.980 461.820" />
<path fill="#000000" stroke="none" d="M7.834 523.810L16.021 514.714L4.965 519.962Z" />
</g>
<g id="X_aaaaaaa_sliznyak-sect.svg">
</g>
<clipPath id="clip_viewBox">
<path d="M-47.481 -540.428L351.211 -540.428L351.211 42.265L-47.481 42.265z" />
</clipPath>
</defs>
<g transform="scale(1,-1)" fill="#000000" stroke="#000000" stroke-linecap="round" stroke-linejoin="round" stroke-miterlimit="10" fill-rule="evenodd" clip-rule="evenodd" clip-path="url(#clip_viewBox)">
<g fill="#ffffff">
<use x="-18.135" y="-512.082" xlink:href="#I_aaaaaaa_sliznyak-sect.svg" />
</g>
<use x="55.865" y="-509.082" xlink:href="#F_aaaaaaa_sliznyak-sect.svg" />
<use x="-19.135" y="-512.082" xlink:href="#E_aaaaaaa_sliznyak-sect.svg" />
</g>
</svg>
